<svg width="348" height="154" viewBox="0 0 348 154" fill="none" xmlns="http://www.w3.org/2000/svg">
<g clip-path="url(#clip0_1_47)">
<rect x="8" y="40" width="10" height="74" fill="black"/>
<rect x="58" y="40" width="8" height="50" transform="rotate(90 58 40)" fill="black"/>
<rect x="58" y="106" width="8" height="50" transform="rotate(90 58 106)" fill="black"/>
<rect x="56" y="73" width="8" height="48" transform="rotate(90 56 73)" fill="black"/>
<path d="M127.163 103.163C121.988 108.337 115.396 111.861 108.218 113.289C101.041 114.717 93.6017 113.984 86.8409 111.184C80.08 108.383 74.3014 103.641 70.2358 97.5563C66.1701 91.4717 64.0001 84.3182 64 77.0003C63.9999 69.6824 66.1699 62.5289 70.2354 56.4442C74.301 50.3596 80.0795 45.6171 86.8403 42.8166C93.6011 40.0161 101.041 39.2833 108.218 40.7108C115.395 42.1384 121.988 45.6622 127.163 50.8366L120.091 57.9086C116.315 54.1328 111.504 51.5615 106.267 50.5198C101.03 49.4781 95.601 50.0129 90.6677 52.0564C85.7343 54.0999 81.5177 57.5605 78.5511 62.0004C75.5845 66.4404 74.0011 71.6604 74.0011 77.0002C74.0011 82.3401 75.5846 87.56 78.5513 91.9999C81.518 96.4398 85.7347 99.9003 90.6681 101.944C95.6015 103.987 101.03 104.522 106.267 103.48C111.505 102.438 116.315 99.867 120.091 96.0911L127.163 103.163Z" fill="black"/>
<path d="M188 40H198V114H188V40Z" fill="black"/>
<path d="M198 73V81H136V73H198Z" fill="black"/>
<path d="M136 40H146V114H136V40Z" fill="black"/>
<path d="M280 77C280 97.4345 263.435 114 243 114C222.565 114 206 97.4345 206 77C206 56.5655 222.565 40 243 40C263.435 40 280 56.5655 280 77ZM216.001 77C216.001 91.9111 228.089 103.999 243 103.999C257.911 103.999 269.999 91.9111 269.999 77C269.999 62.0889 257.911 50.0011 243 50.0011C228.089 50.0011 216.001 62.0889 216.001 77Z" fill="black"/>
<path d="M283.305 36.6949C288.598 41.9879 292.797 48.2715 295.661 55.1871C298.526 62.1026 300 69.5147 300 77C300 84.4854 298.526 91.8974 295.661 98.813C292.797 105.729 288.598 112.012 283.305 117.305L276.232 110.232C280.596 105.868 284.057 100.687 286.419 94.9848C288.781 89.2829 289.996 83.1717 289.997 77C289.997 70.8284 288.781 64.7171 286.419 59.0152C284.057 53.3134 280.596 48.1325 276.232 43.7685L283.305 36.6949Z" fill="black"/>
<path d="M297.447 22.5528C304.597 29.7029 310.269 38.1913 314.139 47.5334C318.008 56.8755 320 66.8882 320 77C320 87.1118 318.008 97.1246 314.139 106.467C310.269 115.809 304.597 124.297 297.447 131.447L290.375 124.375C296.596 118.153 301.531 110.767 304.898 102.639C308.265 94.5104 309.998 85.7983 309.998 77C309.998 68.2018 308.265 59.4896 304.898 51.3611C301.531 43.2326 296.596 35.8468 290.375 29.6255L297.447 22.5528Z" fill="black"/>
<path d="M311.589 8.41066C320.597 17.418 327.742 28.1112 332.616 39.8797C337.491 51.6483 340 64.2618 340 77C340 89.7383 337.491 102.352 332.616 114.12C327.742 125.889 320.597 136.582 311.589 145.589L304.518 138.518C312.596 130.439 319.005 120.848 323.377 110.293C327.749 99.738 329.999 88.4249 329.999 77C329.999 65.5751 327.749 54.2621 323.377 43.7068C319.005 33.1516 312.596 23.5609 304.518 15.4822L311.589 8.41066Z" fill="black"/>
</g>
<defs>
<clipPath id="clip0_1_47">
<rect width="348" height="154" fill="white"/>
</clipPath>
</defs>
</svg>
