<svg width="166" height="166" viewBox="0 0 166 166" fill="none" xmlns="http://www.w3.org/2000/svg">
<g clip-path="url(#clip0_4_7)">
<rect width="166" height="166" rx="16" fill="white"/>
<path d="M90 83C90 103.435 73.4345 120 53 120C32.5655 120 16 103.435 16 83C16 62.5655 32.5655 46 53 46C73.4345 46 90 62.5655 90 83ZM26.0011 83C26.0011 97.9111 38.0889 109.999 53 109.999C67.9111 109.999 79.9989 97.9111 79.9989 83C79.9989 68.0889 67.9111 56.0011 53 56.0011C38.0889 56.0011 26.0011 68.0889 26.0011 83Z" fill="black"/>
<path d="M93.3051 42.6949C98.598 47.9879 102.797 54.2715 105.661 61.1871C108.526 68.1026 110 75.5147 110 83C110 90.4854 108.526 97.8974 105.661 104.813C102.797 111.729 98.598 118.012 93.3051 123.305L86.2315 116.232C90.5956 111.868 94.0573 106.687 96.4191 100.985C98.7809 95.2829 99.9965 89.1717 99.9965 83C99.9965 76.8284 98.7809 70.7171 96.4191 65.0152C94.0573 59.3134 90.5956 54.1325 86.2316 49.7685L93.3051 42.6949Z" fill="black"/>
<path d="M107.447 28.5528C114.597 35.7029 120.269 44.1913 124.139 53.5334C128.008 62.8755 130 72.8882 130 83C130 93.1118 128.008 103.125 124.139 112.467C120.269 121.809 114.597 130.297 107.447 137.447L100.375 130.375C106.596 124.153 111.531 116.767 114.898 108.639C118.265 100.51 119.998 91.7983 119.998 83C119.998 74.2018 118.265 65.4896 114.898 57.3611C111.531 49.2326 106.596 41.8468 100.375 35.6255L107.447 28.5528Z" fill="black"/>
<path d="M121.589 14.4107C130.597 23.418 137.742 34.1112 142.616 45.8797C147.491 57.6483 150 70.2618 150 83C150 95.7383 147.491 108.352 142.616 120.12C137.742 131.889 130.597 142.582 121.589 151.589L114.518 144.518C122.596 136.439 129.005 126.848 133.377 116.293C137.749 105.738 139.999 94.4249 139.999 83C139.999 71.5751 137.749 60.2621 133.377 49.7068C129.005 39.1516 122.596 29.5609 114.518 21.4822L121.589 14.4107Z" fill="black"/>
</g>
<defs>
<clipPath id="clip0_4_7">
<rect width="166" height="166" rx="16" fill="white"/>
</clipPath>
</defs>
</svg>
